<svg id="visual" viewBox="0 0 900 900" width="900" height="900" xmlns="http://www.w3.org/2000/svg" xmlns:xlink="http://www.w3.org/1999/xlink" version="1.1"><g transform="translate(417.42578572254513 467.6830841993558)"><path d="M193.9 -333.1C256.9 -299.6 317.2 -258.8 358.8 -202.1C400.4 -145.3 423.2 -72.7 419.9 -1.9C416.6 68.8 387.1 137.7 350.3 202.6C313.4 267.6 269.2 328.6 209.6 350.5C150 372.3 75 354.9 9.4 338.6C-56.2 322.3 -112.3 307.1 -175.8 287.5C-239.4 267.9 -310.2 244 -338.6 195.3C-367 146.7 -353 73.3 -338.7 8.3C-324.4 -56.8 -309.9 -113.7 -287.9 -173.4C-265.9 -233.2 -236.4 -295.9 -187.2 -337.3C-138 -378.7 -69 -398.8 -1.8 -395.8C65.5 -392.8 131 -366.6 193.9 -333.1" fill="#ff5d9e"></path></g></svg>